<?xml version="1.0" standalone="no"?>
<!DOCTYPE svg PUBLIC "-//W3C//DTD SVG 20010904//EN"
 "http://www.w3.org/TR/2001/REC-SVG-20010904/DTD/svg10.dtd">
<svg version="1.0" xmlns="http://www.w3.org/2000/svg"
 width="128.000000pt" height="128.000000pt" viewBox="0 0 128.000000 128.000000"
 preserveAspectRatio="xMidYMid meet">

<g transform="translate(0.000000,128.000000) scale(0.100000,-0.100000)"
fill="#000000" stroke="none">
<path d="M0 640 l0 -640 640 0 640 0 0 640 0 640 -640 0 -640 0 0 -640z m691
547 c18 -12 44 -38 56 -57 23 -33 23 -39 21 -234 l-3 -201 -25 3 c-14 2 -37
16 -53 31 l-27 27 20 39 c22 43 23 76 3 83 -7 2 -16 -5 -19 -15 -19 -58 -30
-75 -55 -88 -15 -8 -37 -15 -48 -15 -25 0 -37 -18 -22 -33 8 -8 22 -8 51 0 36
9 42 8 51 -9 14 -27 69 -58 102 -58 l27 0 0 -225 c0 -246 -5 -274 -55 -313
-39 -31 -96 -46 -141 -37 -45 8 -109 67 -120 110 -10 39 23 94 71 119 33 17
42 18 92 6 45 -10 57 -10 64 1 11 19 4 26 -36 32 -50 8 -90 40 -109 87 -12 31
-14 46 -6 61 16 28 9 84 -10 84 -10 0 -17 -14 -21 -42 -6 -49 -19 -66 -59 -83
-17 -7 -30 -19 -30 -26 0 -16 33 -18 59 -4 15 7 23 2 43 -29 l25 -39 -32 -15
c-18 -9 -41 -28 -52 -42 -48 -68 -46 -67 -87 -59 -49 9 -111 63 -127 111 -11
34 -9 78 6 115 5 13 1 20 -16 27 -52 20 -99 92 -99 149 1 40 35 108 65 128 25
16 28 16 61 1 40 -20 108 -23 102 -5 -2 6 -23 17 -47 24 -84 24 -99 63 -58
144 30 60 85 92 148 87 l47 -4 4 47 c3 26 13 59 24 73 49 66 151 87 215 44z
m274 -33 c8 -4 23 -20 31 -36 13 -24 13 -35 4 -59 -7 -15 -21 -31 -31 -34 -11
-4 -19 -16 -19 -29 0 -13 -9 -35 -21 -50 -17 -22 -28 -26 -70 -26 -37 0 -49 4
-49 15 0 11 11 15 38 15 64 0 84 45 37 82 -65 51 1 152 80 122z m174 -210 c17
-38 14 -53 -19 -86 -16 -16 -30 -40 -30 -53 0 -14 -11 -32 -26 -44 -23 -18
-41 -21 -140 -21 -107 0 -114 1 -114 20 0 18 8 20 118 22 114 3 117 4 120 26
2 15 -6 33 -22 49 -42 41 -33 97 17 118 39 16 80 3 96 -31z m-10 -310 c27 -34
26 -57 -2 -90 -32 -37 -82 -38 -111 -1 -21 26 -26 27 -114 27 -85 0 -92 1 -92
20 0 19 7 20 91 20 85 0 93 2 115 25 32 35 85 34 113 -1z m-64 -219 c14 -13
25 -33 25 -44 0 -11 14 -33 30 -49 54 -54 28 -126 -45 -126 -70 0 -97 66 -49
123 15 18 24 40 22 53 -3 22 -7 23 -120 26 -110 2 -118 4 -118 22 0 19 7 20
115 20 110 0 117 -1 140 -25z m-172 -122 c8 -10 19 -31 23 -48 4 -16 18 -38
31 -48 50 -39 17 -127 -47 -127 -66 0 -97 88 -44 129 37 29 30 65 -13 69 -25
2 -33 8 -33 23 0 15 7 19 33 19 20 0 41 -7 50 -17z"/>
</g>
</svg>
